<mxfile host="app.diagrams.net" agent="Mozilla/5.0 (Windows NT 10.0; Win64; x64) AppleWebKit/537.36 (KHTML, like Gecko) Chrome/140.0.0.0 Safari/537.36" version="28.2.0">
  <diagram name="Page-1" id="ft6Dak35YB7YMGcHiVMh">
    <mxGraphModel dx="1892" dy="561" grid="1" gridSize="10" guides="1" tooltips="1" connect="1" arrows="1" fold="1" page="1" pageScale="1" pageWidth="850" pageHeight="1100" math="0" shadow="0">
      <root>
        <mxCell id="0" />
        <mxCell id="1" parent="0" />
        <mxCell id="-uI5xv_ZlBJ2iA-XSNuh-1" value="&lt;b&gt;MySQL&lt;/b&gt;" style="shape=cylinder3;whiteSpace=wrap;html=1;boundedLbl=1;backgroundOutline=1;size=15;fillColor=#dae8fc;gradientColor=#7ea6e0;strokeColor=#6c8ebf;" parent="1" vertex="1">
          <mxGeometry x="560" y="120" width="160" height="120" as="geometry" />
        </mxCell>
        <mxCell id="-uI5xv_ZlBJ2iA-XSNuh-2" value="" style="rounded=0;whiteSpace=wrap;html=1;fillColor=#d5e8d4;gradientColor=#97d077;strokeColor=#82b366;" parent="1" vertex="1">
          <mxGeometry x="240" y="120" width="200" height="120" as="geometry" />
        </mxCell>
        <mxCell id="-uI5xv_ZlBJ2iA-XSNuh-3" style="edgeStyle=orthogonalEdgeStyle;rounded=0;orthogonalLoop=1;jettySize=auto;html=1;entryX=0;entryY=0.5;entryDx=0;entryDy=0;entryPerimeter=0;" parent="1" source="-uI5xv_ZlBJ2iA-XSNuh-2" target="-uI5xv_ZlBJ2iA-XSNuh-1" edge="1">
          <mxGeometry relative="1" as="geometry" />
        </mxCell>
        <mxCell id="-uI5xv_ZlBJ2iA-XSNuh-4" value="&lt;b&gt;DB Server&lt;/b&gt;" style="text;html=1;align=center;verticalAlign=middle;resizable=0;points=[];autosize=1;strokeColor=none;fillColor=none;" parent="1" vertex="1">
          <mxGeometry x="600" y="120" width="80" height="30" as="geometry" />
        </mxCell>
        <mxCell id="-uI5xv_ZlBJ2iA-XSNuh-5" value="&lt;b&gt;App/Backend Server&lt;/b&gt;" style="text;html=1;align=center;verticalAlign=middle;resizable=0;points=[];autosize=1;strokeColor=none;fillColor=none;" parent="1" vertex="1">
          <mxGeometry x="270" y="120" width="140" height="30" as="geometry" />
        </mxCell>
        <mxCell id="-uI5xv_ZlBJ2iA-XSNuh-7" value="" style="points=[];aspect=fixed;html=1;align=center;shadow=0;dashed=0;fillColor=#FF6A00;strokeColor=none;shape=mxgraph.alibaba_cloud.nodejs_performance_platform;" parent="1" vertex="1">
          <mxGeometry x="308.98" y="150" width="62.03" height="70" as="geometry" />
        </mxCell>
        <mxCell id="3XL4Y_Zw44MWAzqIAuqU-1" value="&lt;b&gt;private IP&lt;/b&gt;&lt;div&gt;&lt;ol&gt;&lt;li&gt;&lt;b&gt;Speed&lt;/b&gt;&lt;/li&gt;&lt;li&gt;&lt;b&gt;Security&lt;/b&gt;&lt;/li&gt;&lt;li&gt;&lt;b&gt;No IP change&lt;/b&gt;&lt;/li&gt;&lt;/ol&gt;&lt;/div&gt;" style="text;html=1;align=left;verticalAlign=middle;resizable=0;points=[];autosize=1;strokeColor=none;fillColor=none;" parent="1" vertex="1">
          <mxGeometry x="460" y="200" width="140" height="100" as="geometry" />
        </mxCell>
        <mxCell id="3XL4Y_Zw44MWAzqIAuqU-2" value="" style="shape=image;editableCssRules=.*;verticalLabelPosition=bottom;labelBackgroundColor=default;verticalAlign=top;aspect=fixed;imageAspect=0;image=data:image/svg+xml,PHN2ZyB4bWxucz0iaHR0cDovL3d3dy53My5vcmcvMjAwMC9zdmciIHZpZXdCb3g9Ii0wLjUgLTAuNSAyNC4yMzMgMjgiIGhlaWdodD0iMjgiIHdpZHRoPSIyNC4yMzMiPiYjeGE7CSAgPHN0eWxlIHR5cGU9InRleHQvY3NzIj4mI3hhOwkJLnN0MHtzdG9wLWNvbG9yOiMwMGNlYWM7fSYjeGE7CQkuc3Qxe3N0b3AtY29sb3I6IzA3ODM4Zjt9JiN4YTsJICA8L3N0eWxlPiYjeGE7CTxkZWZzPiYjeGE7CQk8bGluZWFyR3JhZGllbnQgZ3JhZGllbnRVbml0cz0idXNlclNwYWNlT25Vc2UiIHkyPSIyMi4yMjkiIHgyPSIyMi45NSIgeTE9IjMuNDc0IiB4MT0iMS42OTgiIGlkPSJBIj4mI3hhOwkJCTxzdG9wIGNsYXNzPSJzdDAiLz4mI3hhOwkJCTxzdG9wIGNsYXNzPSJzdDEiIG9mZnNldD0iMSIvPiYjeGE7CQk8L2xpbmVhckdyYWRpZW50PiYjeGE7CTwvZGVmcz4mI3hhOwk8cGF0aCBmaWxsPSJ1cmwoI0EpIiBkPSJNMTUuNTUyIDExLjYwOGwtLjkzMS0uNDM4aC4wMDJhNy4wMyA3LjAzIDAgMCAwIDEuNDgtMi4xOTJjLjQwMS0uODQuNjAzLTEuNzUzLjYwMy0yLjczOSAwLS45NS0uMTg0LTEuODI3LS41NDktMi42M2E2LjQ1IDYuNDUgMCAwIDAtMS40MjQtMi4xMzdDMTQuMTExLjg1MiAxMy4zOTkuMzc3IDEyLjU5Ni4wNDlBNi4yNyA2LjI3IDAgMCAwIDkuOTY2LS41Yy0uOTE0IDAtMS43OS4xODItMi42My41NDdhNi4zMiA2LjMyIDAgMCAwLTIuMTkyIDEuNDI1QTcuOCA3LjggMCAwIDAgMy43MTkgMy42MWMtLjM2NS44MDMtLjU0NyAxLjY4LS41NDcgMi42M2E2LjYzIDYuNjMgMCAwIDAgLjYwMSAyLjc5M2MuMzk3LjgzMy45NTYgMS41NzggMS42NDUgMi4xOTItMS43NTMuNjk0LTMuMTc3IDEuODQ2LTQuMjczIDMuNDUyQy4wNDkgMTYuMjQ4LS41IDE4LjA1NS0uNSAyMC4xMDF2Mi43NGMtLjAwOS4zNC4xMDguNjcyLjMyOC45MzFhMS4zOCAxLjM4IDAgMCAwIC45MzMuMzI4aDkuMzFjLjE1Mi4wMDQuMzA0LS4wMjMuNDQ1LS4wOHMuMjctLjE0Mi4zNzctLjI1YTEuMjcgMS4yNyAwIDAgMCAuMzg0LS45MjkgMS4wNCAxLjA0IDAgMCAwLS4zODQtLjgyMmMtLjIxOS0uMjU2LS40OTMtLjM4NC0uODIyLS4zODRIMS45NjZ2LTEuNTM0YzAtLjk4Ny4xNjMtMS44OTkuNDkxLTIuNzQuMzQxLS44MzkuODQzLTEuNjAyIDEuNDgtMi4yNDYuNjIxLS42NTggMS4zMzQtMS4xNjggMi4xMzctMS41MzRhNi42NyA2LjY3IDAgMCAxIDIuNjg0LS41NDdoMi42M2MuODA2LS4wMDYgMS42MDYuMTQyIDIuMzU3LjQzOC43NjYuMjU2IDEuMzY5LjU4NCAxLjgwOC45ODdhMi41OCAyLjU4IDAgMCAwIC42NTcuNDkxYy4xOTguMDY3LjM5OS4xMjIuNjAzLjE2NS4yOTMgMCAuNTY2LS4xMjguODIyLS4zODIuMTgyLS4xODIuMjczLS4zODQuMjczLS42MDN2LS4xNjVjLS4wMDgtLjM0Ny0uMTQ1LS42NzktLjM4NC0uOTMxYTUuMTggNS4xOCAwIDAgMC0uOTMxLS44MjIgNC4zMSA0LjMxIDAgMCAwLTEuMDQxLS42MDN6bS0yLjU3Ni0yLjMwMmMtLjgzOC44NDItMS44NDQgMS4yNjItMy4wMTIgMS4yNjJ2LS4wMDJjLTEuMTY5IDAtMi4xOTItLjQxOS0zLjA2OC0xLjI1OUE0LjE4IDQuMTggMCAwIDEgNS42MzUgNi4yNGE0LjExIDQuMTEgMCAwIDEgMS4yNjEtMy4wMTRjLjg3Ny0uODQgMS44OTktMS4yNjEgMy4wNjgtMS4yNjFhNC4xMSA0LjExIDAgMCAxIDMuMDEyIDEuMjYxYy44NzcuODQgMS4zMTUgMS44NDQgMS4zMTUgMy4wMTJhNC4wOCA0LjA4IDAgMCAxLTEuMzE1IDMuMDY4em0uMTUxIDE2LjMwOWEuODUuODUgMCAwIDEgLjIxMy0uNTdsNC4wMDEtNC4xNDJjLS4wOTUtLjMxNC0uMTQyLS42MzctLjE0Mi0uOTY3YTMuNjEgMy42MSAwIDAgMSAuMjYtMS4zNjRjLjE3NC0uNDMuNDE4LS44MDIuNzM0LTEuMTE2YTMuMTQgMy4xNCAwIDAgMSAxLjA2NS0uNzY5Yy4zOTUtLjE5OC44MjktLjI5OCAxLjMwMi0uMjk4YTMuMDkgMy4wOSAwIDAgMSAxLjk2NS42N2MuNTY4LjQzLjk3MS45OTIgMS4yMDcgMS42ODZIMjAuOTRjLS4yMjEgMC0uNDM0LjA3NC0uNjM5LjIyMy0uMjIxLjE0OS0uMzMxLjMzOS0uMzMxLjU3di43OTRjMCAuMjMyLjExLjQzLjMzMS41OTUuMjA1LjE0OS40MTguMjIzLjYzOS4yMjNoMi43OTRjLS4yMzcuNjYxLS42MzkgMS4yMTUtMS4yMDcgMS42NjItLjU2OC40My0xLjIyMy42NDUtMS45NjUuNjQ1LS40NTggMC0uODY4LS4wODMtMS4yMzEtLjI0OGwtMy44NTkgNC4wNjdhLjcyLjcyIDAgMCAxLS41NDQuMjIzYy0uMTg5IDAtLjM1NS0uMDc0LS40OTctLjIyM2wtMS4wODktMS4xNDFhLjczLjczIDAgMCAxLS4yMTMtLjUyMXoiIGZpbGwtcnVsZT0iZXZlbm9kZCIvPiYjeGE7PC9zdmc+;" parent="1" vertex="1">
          <mxGeometry x="597.15" y="370" width="85.71" height="100" as="geometry" />
        </mxCell>
        <mxCell id="3XL4Y_Zw44MWAzqIAuqU-3" style="edgeStyle=orthogonalEdgeStyle;rounded=0;orthogonalLoop=1;jettySize=auto;html=1;entryX=0.5;entryY=1;entryDx=0;entryDy=0;entryPerimeter=0;" parent="1" source="3XL4Y_Zw44MWAzqIAuqU-2" target="-uI5xv_ZlBJ2iA-XSNuh-1" edge="1">
          <mxGeometry relative="1" as="geometry" />
        </mxCell>
        <mxCell id="3XL4Y_Zw44MWAzqIAuqU-4" value="&lt;b&gt;Creating Schema&lt;/b&gt;&lt;div&gt;&lt;b&gt;Assigning Permission&lt;/b&gt;&lt;/div&gt;" style="text;html=1;align=left;verticalAlign=middle;resizable=0;points=[];autosize=1;strokeColor=none;fillColor=none;" parent="1" vertex="1">
          <mxGeometry x="650" y="283" width="150" height="40" as="geometry" />
        </mxCell>
        <mxCell id="3XL4Y_Zw44MWAzqIAuqU-5" value="" style="rounded=0;whiteSpace=wrap;html=1;fillColor=#dae8fc;strokeColor=#6c8ebf;" parent="1" vertex="1">
          <mxGeometry x="390" y="460" width="180" height="250" as="geometry" />
        </mxCell>
        <mxCell id="3XL4Y_Zw44MWAzqIAuqU-6" value="&lt;b&gt;mysql-server&lt;/b&gt;" style="text;html=1;align=center;verticalAlign=middle;resizable=0;points=[];autosize=1;strokeColor=none;fillColor=none;" parent="1" vertex="1">
          <mxGeometry x="425" y="513" width="100" height="30" as="geometry" />
        </mxCell>
        <mxCell id="3XL4Y_Zw44MWAzqIAuqU-7" value="" style="rounded=1;whiteSpace=wrap;html=1;fillColor=#d5e8d4;strokeColor=#82b366;" parent="1" vertex="1">
          <mxGeometry x="425" y="498" width="120" height="60" as="geometry" />
        </mxCell>
        <mxCell id="3XL4Y_Zw44MWAzqIAuqU-8" value="&lt;b&gt;mysql-server&lt;/b&gt;" style="text;html=1;align=center;verticalAlign=middle;resizable=0;points=[];autosize=1;strokeColor=none;fillColor=none;" parent="1" vertex="1">
          <mxGeometry x="435" y="513" width="100" height="30" as="geometry" />
        </mxCell>
        <mxCell id="3XL4Y_Zw44MWAzqIAuqU-12" style="edgeStyle=orthogonalEdgeStyle;rounded=0;orthogonalLoop=1;jettySize=auto;html=1;" parent="1" source="3XL4Y_Zw44MWAzqIAuqU-10" target="3XL4Y_Zw44MWAzqIAuqU-7" edge="1">
          <mxGeometry relative="1" as="geometry" />
        </mxCell>
        <mxCell id="3XL4Y_Zw44MWAzqIAuqU-10" value="&lt;b style=&quot;text-wrap-mode: nowrap;&quot;&gt;mysql&lt;/b&gt;" style="ellipse;whiteSpace=wrap;html=1;" parent="1" vertex="1">
          <mxGeometry x="440" y="640" width="90" height="40" as="geometry" />
        </mxCell>
        <mxCell id="3XL4Y_Zw44MWAzqIAuqU-13" value="" style="rounded=1;whiteSpace=wrap;html=1;fillColor=#f8cecc;strokeColor=#b85450;" parent="1" vertex="1">
          <mxGeometry x="110" y="501.5" width="120" height="167" as="geometry" />
        </mxCell>
        <mxCell id="3XL4Y_Zw44MWAzqIAuqU-14" value="&lt;b&gt;App Server&lt;/b&gt;" style="text;html=1;align=center;verticalAlign=middle;resizable=0;points=[];autosize=1;strokeColor=none;fillColor=none;" parent="1" vertex="1">
          <mxGeometry x="125" y="510" width="90" height="30" as="geometry" />
        </mxCell>
        <mxCell id="3XL4Y_Zw44MWAzqIAuqU-16" style="edgeStyle=orthogonalEdgeStyle;rounded=0;orthogonalLoop=1;jettySize=auto;html=1;entryX=0.042;entryY=0.56;entryDx=0;entryDy=0;entryPerimeter=0;" parent="1" source="3XL4Y_Zw44MWAzqIAuqU-18" target="3XL4Y_Zw44MWAzqIAuqU-6" edge="1">
          <mxGeometry relative="1" as="geometry" />
        </mxCell>
        <mxCell id="3XL4Y_Zw44MWAzqIAuqU-17" value="&lt;b&gt;mysql&lt;/b&gt;" style="ellipse;whiteSpace=wrap;html=1;aspect=fixed;" parent="1" vertex="1">
          <mxGeometry x="140" y="600" width="60" height="60" as="geometry" />
        </mxCell>
        <mxCell id="3XL4Y_Zw44MWAzqIAuqU-19" value="" style="edgeStyle=orthogonalEdgeStyle;rounded=0;orthogonalLoop=1;jettySize=auto;html=1;entryX=0.042;entryY=0.56;entryDx=0;entryDy=0;entryPerimeter=0;" parent="1" source="3XL4Y_Zw44MWAzqIAuqU-13" target="3XL4Y_Zw44MWAzqIAuqU-18" edge="1">
          <mxGeometry relative="1" as="geometry">
            <mxPoint x="230" y="585" as="sourcePoint" />
            <mxPoint x="429" y="530" as="targetPoint" />
          </mxGeometry>
        </mxCell>
        <mxCell id="3XL4Y_Zw44MWAzqIAuqU-18" value="" style="image;html=1;image=img/lib/clip_art/networking/Firewall_02_128x128.png" parent="1" vertex="1">
          <mxGeometry x="270" y="400" width="101.01" height="235" as="geometry" />
        </mxCell>
        <mxCell id="3XL4Y_Zw44MWAzqIAuqU-23" style="edgeStyle=orthogonalEdgeStyle;rounded=0;orthogonalLoop=1;jettySize=auto;html=1;entryX=0;entryY=0.5;entryDx=0;entryDy=0;" parent="1" source="3XL4Y_Zw44MWAzqIAuqU-20" target="-uI5xv_ZlBJ2iA-XSNuh-2" edge="1">
          <mxGeometry relative="1" as="geometry" />
        </mxCell>
        <mxCell id="3XL4Y_Zw44MWAzqIAuqU-20" value="" style="rounded=0;whiteSpace=wrap;html=1;fillColor=#dae8fc;strokeColor=#6c8ebf;" parent="1" vertex="1">
          <mxGeometry x="-40" y="120" width="150" height="120" as="geometry" />
        </mxCell>
        <mxCell id="3XL4Y_Zw44MWAzqIAuqU-21" value="&lt;b&gt;Nginx&lt;/b&gt;" style="text;html=1;align=center;verticalAlign=middle;resizable=0;points=[];autosize=1;strokeColor=none;fillColor=none;" parent="1" vertex="1">
          <mxGeometry x="5" y="120" width="60" height="30" as="geometry" />
        </mxCell>
        <mxCell id="3XL4Y_Zw44MWAzqIAuqU-22" value="" style="dashed=0;outlineConnect=0;html=1;align=center;labelPosition=center;verticalLabelPosition=bottom;verticalAlign=top;shape=mxgraph.weblogos.html5" parent="1" vertex="1">
          <mxGeometry x="8.800000000000011" y="150" width="52.400000000000006" height="74" as="geometry" />
        </mxCell>
        <mxCell id="3XL4Y_Zw44MWAzqIAuqU-27" style="edgeStyle=orthogonalEdgeStyle;rounded=0;orthogonalLoop=1;jettySize=auto;html=1;entryX=0;entryY=0.5;entryDx=0;entryDy=0;" parent="1" source="3XL4Y_Zw44MWAzqIAuqU-24" target="3XL4Y_Zw44MWAzqIAuqU-26" edge="1">
          <mxGeometry relative="1" as="geometry" />
        </mxCell>
        <mxCell id="3XL4Y_Zw44MWAzqIAuqU-24" value="" style="rounded=0;whiteSpace=wrap;html=1;fillColor=#dae8fc;strokeColor=#6c8ebf;" parent="1" vertex="1">
          <mxGeometry x="-280" y="525" width="150" height="120" as="geometry" />
        </mxCell>
        <mxCell id="3XL4Y_Zw44MWAzqIAuqU-25" value="" style="dashed=0;outlineConnect=0;html=1;align=center;labelPosition=center;verticalLabelPosition=bottom;verticalAlign=top;shape=mxgraph.weblogos.html5" parent="1" vertex="1">
          <mxGeometry x="-231.2" y="548" width="52.400000000000006" height="74" as="geometry" />
        </mxCell>
        <mxCell id="3XL4Y_Zw44MWAzqIAuqU-26" value="" style="image;html=1;image=img/lib/clip_art/networking/Firewall_02_128x128.png" parent="1" vertex="1">
          <mxGeometry x="-60" y="470" width="101.01" height="235" as="geometry" />
        </mxCell>
        <mxCell id="3XL4Y_Zw44MWAzqIAuqU-28" style="edgeStyle=orthogonalEdgeStyle;rounded=0;orthogonalLoop=1;jettySize=auto;html=1;entryX=-0.03;entryY=0.443;entryDx=0;entryDy=0;entryPerimeter=0;" parent="1" source="3XL4Y_Zw44MWAzqIAuqU-26" target="3XL4Y_Zw44MWAzqIAuqU-13" edge="1">
          <mxGeometry relative="1" as="geometry">
            <Array as="points">
              <mxPoint x="76" y="588" />
              <mxPoint x="76" y="576" />
            </Array>
          </mxGeometry>
        </mxCell>
        <mxCell id="3XL4Y_Zw44MWAzqIAuqU-29" value="&lt;b&gt;8080&lt;/b&gt;" style="text;html=1;align=center;verticalAlign=middle;resizable=0;points=[];autosize=1;strokeColor=none;fillColor=none;" parent="1" vertex="1">
          <mxGeometry x="-45" y="650" width="50" height="30" as="geometry" />
        </mxCell>
        <mxCell id="3XL4Y_Zw44MWAzqIAuqU-30" value="&lt;b&gt;nodejs&lt;/b&gt;" style="rounded=1;whiteSpace=wrap;html=1;" parent="1" vertex="1">
          <mxGeometry x="120" y="540" width="100" height="50" as="geometry" />
        </mxCell>
        <mxCell id="9wb9FtWqIH1Qann-4nXG-2" style="edgeStyle=orthogonalEdgeStyle;rounded=0;orthogonalLoop=1;jettySize=auto;html=1;entryX=0;entryY=0.5;entryDx=0;entryDy=0;" edge="1" parent="1" source="9wb9FtWqIH1Qann-4nXG-1" target="3XL4Y_Zw44MWAzqIAuqU-20">
          <mxGeometry relative="1" as="geometry" />
        </mxCell>
        <mxCell id="9wb9FtWqIH1Qann-4nXG-1" value="" style="html=1;verticalLabelPosition=bottom;align=center;labelBackgroundColor=#ffffff;verticalAlign=top;strokeWidth=2;strokeColor=#0080F0;shadow=0;dashed=0;shape=mxgraph.ios7.icons.user;" vertex="1" parent="1">
          <mxGeometry x="-240" y="150" width="70" height="60" as="geometry" />
        </mxCell>
        <mxCell id="9wb9FtWqIH1Qann-4nXG-3" value="&lt;b&gt;Reverese Proxy&lt;/b&gt;" style="text;html=1;align=center;verticalAlign=middle;resizable=0;points=[];autosize=1;strokeColor=none;fillColor=none;" vertex="1" parent="1">
          <mxGeometry x="-20" y="253" width="110" height="30" as="geometry" />
        </mxCell>
      </root>
    </mxGraphModel>
  </diagram>
</mxfile>
